<?xml version="1.0" encoding="utf-8"?>
<!-- Generator: Adobe Illustrator 16.0.0, SVG Export Plug-In . SVG Version: 6.00 Build 0)  -->
<!DOCTYPE svg PUBLIC "-//W3C//DTD SVG 1.1//EN" "http://www.w3.org/Graphics/SVG/1.1/DTD/svg11.dtd">
<svg version="1.1" id="Capa_1" xmlns="http://www.w3.org/2000/svg" xmlns:xlink="http://www.w3.org/1999/xlink" x="0px" y="0px"
	 width="960px" height="560px" viewBox="0 0 960 560" enable-background="new 0 0 960 560" xml:space="preserve">
<g>
	<g>
		<path fill="#CBD1D3" d="M614.168,23.333c-62.117,0-113.42,57.695-134.168,84.925c-20.747-27.229-72.051-84.925-134.167-84.925
			C265.421,23.333,200,97.264,200,188.125c0,49.571,19.677,95.771,54.118,127.388c0.501,0.866,1.116,1.663,1.834,2.381
			L471.763,533.26c2.278,2.268,5.252,3.407,8.236,3.407c2.985,0,5.971-1.14,8.25-3.418L711.238,310.34l2.301-2.233
			c1.823-1.72,3.624-3.464,5.64-5.696c0.843-0.831,1.538-1.766,2.073-2.78C746.26,269.005,760,229.505,760,188.125
			C760,97.264,694.581,23.333,614.168,23.333z"/>
	</g>
</g>
</svg>
