<?xml version="1.0" encoding="utf-8"?>
<!-- Generator: Adobe Illustrator 16.0.0, SVG Export Plug-In . SVG Version: 6.00 Build 0)  -->
<!DOCTYPE svg PUBLIC "-//W3C//DTD SVG 1.1//EN" "http://www.w3.org/Graphics/SVG/1.1/DTD/svg11.dtd">
<svg version="1.1" id="Capa_1" xmlns="http://www.w3.org/2000/svg" xmlns:xlink="http://www.w3.org/1999/xlink" x="0px" y="0px"
	 width="960px" height="560px" viewBox="0 0 960 560" enable-background="new 0 0 960 560" xml:space="preserve">
<path fill="#FFFFFF" d="M748.335,268.167H239.839l190.094-190.07c4.477-4.634,4.348-12.021-0.286-16.497
	c-4.521-4.366-11.689-4.366-16.21,0L203.44,271.597c-4.563,4.55-4.571,11.937-0.021,16.499c0.007,0.007,0.015,0.014,0.021,0.021
	l209.996,209.997c4.477,4.634,11.862,4.762,16.497,0.286c4.635-4.477,4.763-11.861,0.287-16.497
	c-0.095-0.097-0.189-0.192-0.287-0.286L239.839,291.5h508.495c6.443,0,11.666-5.224,11.666-11.666
	C760,273.391,754.778,268.167,748.335,268.167z"/>
<path fill="#FFFFFF" d="M421.673,501.497c-3.097,0.005-6.068-1.22-8.26-3.407L203.416,288.094c-4.555-4.556-4.555-11.94,0-16.497
	L413.413,61.6c4.634-4.477,12.02-4.348,16.497,0.287c4.366,4.521,4.366,11.688,0,16.209L228.173,279.834L429.91,481.571
	c4.562,4.55,4.57,11.937,0.021,16.499C427.742,500.262,424.771,501.496,421.673,501.497z"/>
<path fill="#FFFFFF" d="M748.335,291.5H211.676c-6.443,0-11.667-5.224-11.667-11.666c0-6.443,5.224-11.667,11.667-11.667h536.659
	c6.443,0,11.667,5.224,11.667,11.667C760.002,286.277,754.778,291.5,748.335,291.5z"/>
</svg>
