<?xml version="1.0" encoding="utf-8"?>
<!-- Generator: Adobe Illustrator 16.0.0, SVG Export Plug-In . SVG Version: 6.00 Build 0)  -->
<!DOCTYPE svg PUBLIC "-//W3C//DTD SVG 1.1//EN" "http://www.w3.org/Graphics/SVG/1.1/DTD/svg11.dtd">
<svg version="1.1" id="Capa_1" xmlns="http://www.w3.org/2000/svg" xmlns:xlink="http://www.w3.org/1999/xlink" x="0px" y="0px"
	 width="960px" height="560px" viewBox="0 0 960 560" enable-background="new 0 0 960 560" xml:space="preserve">
<g>
	<g>
		<path fill="#FFFDFD" d="M756.582,523.588L593.906,360.911c30.855-38.092,49.428-86.519,49.428-139.244
			C643.334,99.441,543.893,0,421.667,0C299.439,0,200,99.441,200,221.667s99.441,221.667,221.668,221.667
			c52.726,0,101.152-18.573,139.244-49.428l162.676,162.677c4.559,4.555,11.943,4.555,16.501,0l16.495-16.496
			C761.138,535.531,761.138,528.143,756.582,523.588z M421.668,396.667c-96.501,0-175.001-78.499-175.001-175
			c0-96.5,78.5-175,175.001-175s175,78.5,175,175C596.668,318.168,518.169,396.667,421.668,396.667z"/>
	</g>
</g>
</svg>
