<?xml version="1.0" encoding="utf-8"?>
<!-- Generator: Adobe Illustrator 16.0.0, SVG Export Plug-In . SVG Version: 6.00 Build 0)  -->
<!DOCTYPE svg PUBLIC "-//W3C//DTD SVG 1.1//EN" "http://www.w3.org/Graphics/SVG/1.1/DTD/svg11.dtd">
<svg version="1.1" id="Layer_1" xmlns="http://www.w3.org/2000/svg" xmlns:xlink="http://www.w3.org/1999/xlink" x="0px" y="0px"
	 width="2032px" height="2500px" viewBox="0 0 2032 2500" enable-background="new 0 0 2032 2500" xml:space="preserve">
<g display="none">
	<path display="inline" fill="#1A1918" d="M535.849,2490.984c-4.302,0-8.937-1.087-12.158-5.444l-137.977-181.444v185.079h-31.461
		V2261.27c0-9.071,7.508-16.325,16.096-16.325c5,0,9.285,1.444,12.5,5.801l137.619,181.08v-184.342h31.452v227.524
		c0,9.437-7.508,15.968-16.079,15.968 M796.08,2493.158c-31.444,0-64.342-6.54-95.08-18.143l7.509-26.135
		c28.237,9.079,58.976,15.61,87.571,15.61c39.683,0,60.412-14.158,60.412-34.11c0-18.144-16.095-27.223-71.492-53.35
		c-55.404-26.127-77.198-42.81-77.198-75.477c0-41,31.444-57.698,90.778-57.698c24.666,0,62.556,5.079,84.365,11.619l-5,26.849
		c-23.969-5.801-53.977-9.793-78.651-9.793c-41.81,0-58.968,7.976-58.968,27.936c0,19.596,12.5,27.937,71.127,55.159
		c61.841,28.667,77.563,43.183,77.563,72.937C889.016,2471.753,848.262,2493.158,796.08,2493.158 M1038.08,2247.491h32.523v241.667
		h-32.523V2247.491z M1347.286,2379.579h-80.794v82.016h80.794c27.516,0,44.317-17.421,44.317-41.746
		C1391.603,2396.991,1374.095,2379.579,1347.286,2379.579 M1331.548,2275.063h-65.056v77.302h65.056
		c26.096,0,45.04-16.698,45.04-39.921C1376.588,2289.587,1360.143,2275.063,1331.548,2275.063 M1347.643,2489.166h-97.223
		c-8.958,0.127-16.323-7.031-16.451-15.99c-0.001-0.111-0.002-0.224-0.001-0.335v-209.032c0-8.714,7.15-16.325,16.452-16.325h80.421
		c49.325,0,78.635,24.31,78.635,62.413c0,20.683-12.158,39.92-30.746,51.166c27.54,8.35,46.111,31.207,46.111,58.786
		c0,38.46-31.81,69.31-77.198,69.31 M1581.048,2489.166c-8.92,0-16.071-7.619-16.071-16.325v-225.35h32.516v212.286h129.397v29.389
		H1581.048L1581.048,2489.166z M1948.619,2493.158c-66.483,0-106.516-24.675-106.516-74.389c0-23.587,13.23-46.088,38.969-56.611
		c-20.738-13.063-31.461-31.571-31.461-51.889c0-45,34.683-66.413,99.73-66.413c21.81,0,52.539,2.54,78.285,8.35l-3.579,26.849
		c-27.159-4.356-52.548-6.889-77.214-6.889c-42.175,0-64.699,11.611-64.699,39.556c0,22.143,20.738,39.556,48.263,39.556h55.754
		c7.864,0,13.944,6.167,13.944,13.786c0,7.983-6.08,14.15-13.944,14.15h-60.04c-31.46,0-51.469,15.595-51.469,39.556
		c0,35.198,32.524,45.714,73.271,45.714c22.166,0,52.183-2.889,76.483-8.698l4.659,26.484
		C2005.817,2488.81,1975.428,2493.158,1948.619,2493.158 M112.207,2292.817l56.968,142.73l-86.031-68.81L112.207,2292.817z
		 M213.405,2468.428l-87.619-214.079c-2.492-6.175-7.5-9.444-13.579-9.444c-6.176-0.116-11.756,3.666-13.937,9.444L2.095,2489.166
		h32.889l38.079-96.81l113.604,93.175c4.571,3.754,7.865,5.444,12.158,5.444c8.572,0,16.088-6.523,16.088-15.952
		c0-1.54-0.54-3.969-1.508-6.588V2468.428z"/>
</g>
<path fill="#FC4C3C" d="M2030.786,1014.825c0,559.166-453.254,1012.42-1012.437,1012.42
	c-559.127,0-1012.429-453.254-1012.429-1012.42C5.921,455.698,459.222,2.397,1018.349,2.397
	C1577.524,2.397,2030.786,455.698,2030.786,1014.825"/>
<path fill="#FFFFFF" d="M1035.397,620.865l261.992,646.635L901.651,955.77l133.746-334.897V620.865z M1500.826,1416.46l-403-969.857
	c-11.508-27.968-34.508-42.777-62.429-42.777c-27.977,0-52.651,14.81-64.159,42.777l-442.317,1063.81h151.31l175.096-438.611
	l522.539,422.144c21.008,16.991,36.175,24.683,55.881,24.683c39.477,0,73.984-29.604,73.984-72.311
	C1507.73,1439.365,1505.27,1428.325,1500.826,1416.46L1500.826,1416.46z"/>
</svg>
