<?xml version="1.0" encoding="utf-8"?>
<!-- Generator: Adobe Illustrator 16.0.0, SVG Export Plug-In . SVG Version: 6.00 Build 0)  -->
<!DOCTYPE svg PUBLIC "-//W3C//DTD SVG 1.1//EN" "http://www.w3.org/Graphics/SVG/1.1/DTD/svg11.dtd">
<svg version="1.1" id="Capa_1" xmlns="http://www.w3.org/2000/svg" xmlns:xlink="http://www.w3.org/1999/xlink" x="0px" y="0px"
	 width="30.238px" height="30.238px" viewBox="0 0 30.238 30.238" enable-background="new 0 0 30.238 30.238" xml:space="preserve">
<g>
	<path fill="#0D5BCE" d="M20.194,3.46c-4.612-4.613-12.121-4.613-16.733,0s-4.612,12.121,0,16.734
		c4.107,4.107,10.506,4.548,15.116,1.341c0.097,0.459,0.318,0.896,0.676,1.254l6.718,6.718c0.979,0.977,2.561,0.977,3.535,0
		c0.978-0.979,0.978-2.561,0-3.535l-6.718-6.72c-0.355-0.354-0.794-0.577-1.253-0.674C24.743,13.967,24.303,7.57,20.194,3.46z
		 M18.073,18.073c-3.443,3.444-9.049,3.444-12.491,0c-3.442-3.443-3.442-9.048,0-12.491s9.048-3.443,12.491,0
		C21.517,9.026,21.517,14.63,18.073,18.073z"/>
</g>
</svg>
